<svg xmlns="http://www.w3.org/2000/svg" viewBox="0 0 917.2 190.7">
  <title>Intersection</title>
  <path d="M168 130V60h26v70zM271 60v70h-32l-15-44 1 13 1 31h-24V60h32l16 46-2-15V60zM341 79h-20v51h-26V79h-20V60h66zM367 79v8h32v17h-32v8h32v18h-55V60h55v19zM435 110h-6v20h-24V60h33c23 0 31 8 31 25 0 9-3 17-11 21l12 24h-25zm2-30h-8v13h8c7 0 8-4 8-7s-1-6-8-6zM503 132c-26 0-33-7-33-25h25c0 6 1 7 9 7 6 0 7-1 7-5 1-10-40 3-40-28 0-14 8-22 32-22 26 0 32 7 32 25h-24c0-6-1-8-8-8s-8 2-8 5c0 11 41-2 41 28 0 16-8 23-33 23zM564 79v8h32v17h-32v8h32v18h-55V60h55v19zM636 79c-8 0-10 5-10 16 0 13 2 17 10 17s9-3 10-12h24c0 22-9 32-35 32s-34-16-34-37c0-20 8-36 34-36 27 0 35 8 35 30h-24c-1-8-3-10-10-10zM738 79h-20v51h-26V79h-21V60h67zM742 130V60h26v70zM772 95c0-20 9-36 36-36s36 16 36 36c0 21-9 37-36 37s-36-16-36-37zm48 0c0-11-4-16-12-16s-11 5-11 16c0 12 3 16 11 16s12-4 12-16zM917 60v70h-32l-15-44 1 14 1 30h-23V60h31l16 46-1-15-1-31zM159 48L95 66 79 0 63 66 0 48l36 36 46-27 3 5-45 26 7 7 36-20 2 4-51 30-26 26 76-43 2 5-76 43 44-13 30-17 3 4-23 13 3 11 18-11 3 5-20 11 11 48 16-67 64 19-48-48 48-47z" fill="#fff"/>
</svg>
